<svg version="1.1" viewBox="0 0 189.8 47.254" xmlns="http://www.w3.org/2000/svg">
	<g transform="translate(-885.72 -252.49)" data-name="Group 18348">
		<g transform="translate(885.72 252.49)" data-name="Group 3142">
			<g data-name="Group 3140">
				<g transform="translate(0 .426)" fill="#006faf" data-name="Group 3136">
					<path transform="translate(-139.91 237.53)" d="m329.71-234.73a2.708 2.708 0 0 1-2.754 2.7 2.721 2.721 0 0 1-2.768-2.7 2.711 2.711 0 0 1 2.786-2.688 2.689 2.689 0 0 1 2.736 2.688m-4.834 0a2.091 2.091 0 0 0 2.1 2.146 2.058 2.058 0 0 0 2.048-2.13 2.094 2.094 0 0 0-2.082-2.164 2.1 2.1 0 0 0-2.064 2.148m1.655 1.392h-0.631v-2.688a7.41 7.41 0 0 1 1.033-0.082 1.423 1.423 0 0 1 0.917 0.213 0.674 0.674 0 0 1 0.279 0.574 0.692 0.692 0 0 1-0.556 0.638v0.034c0.261 0.082 0.393 0.3 0.475 0.654a2.324 2.324 0 0 0 0.2 0.656h-0.656a2.107 2.107 0 0 1-0.214-0.656c-0.05-0.277-0.213-0.409-0.556-0.409h-0.3zm0.015-1.508h0.3c0.343 0 0.622-0.113 0.622-0.393 0-0.245-0.179-0.411-0.574-0.411a1.53 1.53 0 0 0-0.343 0.034z" data-name="Path 5628"/>
					<path transform="translate(-36.422 237.59)" d="m45.731-220.71h-4.931v7.986h-4.378v-24.869h9.8c5.8 0 9.455 3.27 9.455 8.349 0 5.611-4.476 8.533-9.95 8.533m0.145-12.9h-5.072v8.955h5.08c3.3 0 5.366-1.812 5.366-4.48 0-2.952-2.1-4.475-5.366-4.475" data-name="Path 5629"/>
					<path transform="translate(-50.748 237.59)" d="m92.21-212.72-6.11-8.67h-5.47v8.67h-4.371v-24.869h11.085c5.722 0 9.239 3.025 9.239 7.9 0 4.122-2.453 6.6-5.929 7.559l6.707 9.414zm-5.22-20.885h-6.36v8.347h6.392c3.131 0 5.12-1.635 5.12-4.194 0-2.736-1.914-4.153-5.152-4.153" data-name="Path 5630"/>
				</g>
				<path transform="translate(-66.173 238.01)" d="m119.15-237.59v24.868h18.6v-3.9h-14.236v-6.687h12.47v-3.908h-12.47v-6.462h14.083v-3.912z" fill="#006faf" data-name="Path 5631"/>
				<g transform="translate(76.888 .072)" data-name="Group 3137">
					<path transform="translate(-156.49 238.14)" d="m167.75-227.35c5.254 1.285 7.986 3.163 7.986 7.318 0 4.7-3.663 7.471-8.874 7.471a15.346 15.346 0 0 1-10.377-3.974l2.627-3.131a11.453 11.453 0 0 0 7.852 3.229c2.7 0 4.4-1.237 4.4-3.158 0-1.816-0.99-2.772-5.608-3.842-5.3-1.274-8.276-2.841-8.276-7.457 0-4.335 3.553-7.25 8.483-7.25a13.793 13.793 0 0 1 9.03 3.129l-2.346 3.3a11.272 11.272 0 0 0-6.75-2.562c-2.554 0-4.047 1.322-4.047 2.986 0 1.957 1.135 2.809 5.9 3.939" fill="#006faf" data-name="Path 5632"/>
				</g>
				<rect transform="translate(103.32 .428)" width="4.371" height="24.868" fill="#006faf" data-name="Rectangle 1920"/>
				<g transform="translate(116.11 .426)" data-name="Group 3138">
					<path transform="translate(-217.74 237.59)" d="m227.01-212.72h-9.269v-24.869h9.269c7.811 0 13.218 5.366 13.218 12.4s-5.407 12.466-13.218 12.466m0-20.885h-4.9v16.914h4.9c5.227 0 8.633-3.524 8.633-8.429s-3.406-8.485-8.633-8.485" fill="#006faf" data-name="Path 5633"/>
				</g>
				<rect transform="translate(145.92 .428)" width="4.364" height="24.868" fill="#006faf" data-name="Rectangle 1921"/>
				<g transform="translate(157.61)" fill="#006faf" data-name="Group 3139">
					<path transform="translate(-282.54 238.25)" d="m295.5-212.54a12.625 12.625 0 0 1-12.956-12.824 12.75 12.75 0 0 1 13.029-12.895 12.634 12.634 0 0 1 12.97 12.829 12.744 12.744 0 0 1-13.043 12.89m0-21.707c-4.937 0-8.383 3.956-8.383 8.817s3.517 8.876 8.456 8.876 8.392-3.939 8.392-8.81-3.524-8.883-8.465-8.883" data-name="Path 5634"/>
					<path transform="translate(-282.54 238.25)" d="m295.5-212.54a12.625 12.625 0 0 1-12.956-12.824 12.75 12.75 0 0 1 13.029-12.895 12.634 12.634 0 0 1 12.97 12.829 12.744 12.744 0 0 1-13.043 12.89m0-21.707c-4.937 0-8.383 3.956-8.383 8.817s3.517 8.876 8.456 8.876 8.392-3.939 8.392-8.81-3.524-8.883-8.465-8.883" data-name="Path 5635"/>
				</g>
			</g>
			<g transform="translate(73.189,34.762)" fill="#4f5253" data-name="Group 3141">
				<path transform="translate(-150.71 183.73)" d="m159.56-171.82a7.472 7.472 0 0 1-3.082 0.555c-3.29 0-5.766-2.078-5.766-5.9a5.808 5.808 0 0 1 6.1-6.129 6.251 6.251 0 0 1 2.77 0.519l-0.364 1.23a5.482 5.482 0 0 0-2.355-0.485c-2.736 0-4.554 1.749-4.554 4.814 0 2.857 1.645 4.692 4.485 4.692a6.035 6.035 0 0 0 2.458-0.484z" data-name="Path 5636"/>
				<path transform="translate(-156.61 183.97)" d="m167.12-183.97h1.523v12.293h-1.523z" data-name="Path 5637"/>
				<path transform="translate(-158.47 181.88)" d="m180.48-173.85a4.1 4.1 0 0 1-4.173 4.449 3.984 3.984 0 0 1-4.017-4.311 4.092 4.092 0 0 1 4.155-4.45 3.969 3.969 0 0 1 4.035 4.312zm-6.649 0.086c0 1.835 1.056 3.22 2.546 3.22 1.454 0 2.546-1.368 2.546-3.255 0-1.42-0.71-3.221-2.511-3.221s-2.581 1.663-2.581 3.256z" data-name="Path 5638"/>
				<path transform="translate(-164.02 181.77)" d="m194.79-171.77c0 0.866 0.017 1.628 0.069 2.286h-1.35l-0.087-1.368h-0.035a3.153 3.153 0 0 1-2.77 1.558c-1.317 0-2.891-0.727-2.891-3.67v-4.9h1.523v4.641c0 1.593 0.485 2.667 1.871 2.667a2.2 2.2 0 0 0 2.008-1.385 2.218 2.218 0 0 0 0.139-0.779v-5.143h1.523z" data-name="Path 5639"/>
				<path transform="translate(-168.97 183.97)" d="m209.34-183.97v10.129c0 0.745 0.018 1.593 0.07 2.165h-1.368l-0.069-1.454h-0.035a3.1 3.1 0 0 1-2.857 1.645c-2.026 0-3.585-1.714-3.585-4.259-0.017-2.788 1.714-4.5 3.758-4.5a2.8 2.8 0 0 1 2.528 1.281h0.034v-5zm-1.524 7.324a2.7 2.7 0 0 0-0.069-0.641 2.241 2.241 0 0 0-2.2-1.766c-1.575 0-2.51 1.385-2.51 3.238 0 1.7 0.831 3.1 2.476 3.1a2.292 2.292 0 0 0 2.234-1.818 2.654 2.654 0 0 0 0.069-0.658z" data-name="Path 5640"/>
				<path transform="translate(-176.36 183.73)" d="m222.42-173.27a5.335 5.335 0 0 0 2.7 0.762c1.541 0 2.442-0.814 2.442-1.992 0-1.091-0.624-1.714-2.2-2.32-1.9-0.675-3.082-1.662-3.082-3.307 0-1.819 1.506-3.169 3.774-3.169a5.3 5.3 0 0 1 2.581 0.571l-0.416 1.23a4.64 4.64 0 0 0-2.216-0.555c-1.593 0-2.2 0.953-2.2 1.749 0 1.091 0.71 1.628 2.32 2.251 1.974 0.762 2.978 1.714 2.978 3.429 0 1.8-1.333 3.359-4.086 3.359a6.029 6.029 0 0 1-2.978-0.745z" data-name="Path 5641"/>
				<path transform="translate(-181.08 181.88)" d="m243.35-173.85a4.1 4.1 0 0 1-4.173 4.449 3.984 3.984 0 0 1-4.017-4.311 4.092 4.092 0 0 1 4.156-4.45 3.969 3.969 0 0 1 4.034 4.312zm-6.649 0.086c0 1.835 1.057 3.22 2.546 3.22 1.455 0 2.546-1.368 2.546-3.255 0-1.42-0.71-3.221-2.51-3.221s-2.579 1.663-2.579 3.256z" data-name="Path 5642"/>
				<path transform="translate(-186.66 183.97)" d="m250.68-183.97h1.523v12.293h-1.523z" data-name="Path 5643"/>
				<path transform="translate(-188.83 181.77)" d="m263.77-171.77c0 0.866 0.018 1.628 0.07 2.286h-1.351l-0.086-1.368h-0.035a3.151 3.151 0 0 1-2.77 1.558c-1.316 0-2.892-0.727-2.892-3.67v-4.9h1.524v4.641c0 1.593 0.485 2.667 1.87 2.667a2.2 2.2 0 0 0 2.009-1.385 2.232 2.232 0 0 0 0.138-0.779v-5.143h1.523z" data-name="Path 5644"/>
				<path transform="translate(-193.58 183.12)" d="m272.72-181.62v2.407h2.183v1.16h-2.182v4.519c0 1.039 0.295 1.628 1.142 1.628a3.368 3.368 0 0 0 0.884-0.1l0.069 1.143a3.732 3.732 0 0 1-1.351 0.208 2.112 2.112 0 0 1-1.645-0.641 3.105 3.105 0 0 1-0.589-2.182v-4.571h-1.3v-1.16h1.3v-2.008z" data-name="Path 5645"/>
				<path transform="translate(-197.13 183.63)" d="m281.69-182.07a0.9 0.9 0 0 1-0.97 0.935 0.906 0.906 0 0 1-0.917-0.935 0.928 0.928 0 0 1 0.952-0.952 0.9 0.9 0 0 1 0.935 0.952zm-1.7 10.735v-8.381h1.524v8.381z" data-name="Path 5646"/>
				<path transform="translate(-199.08 181.88)" d="m293.4-173.85a4.1 4.1 0 0 1-4.173 4.449 3.984 3.984 0 0 1-4.017-4.311 4.092 4.092 0 0 1 4.155-4.45 3.968 3.968 0 0 1 4.035 4.312zm-6.649 0.086c0 1.835 1.057 3.22 2.546 3.22 1.454 0 2.546-1.368 2.546-3.255 0-1.42-0.71-3.221-2.51-3.221s-2.586 1.663-2.586 3.256z" data-name="Path 5647"/>
				<path transform="translate(-204.62 181.88)" d="m300.69-175.7c0-0.866-0.018-1.576-0.07-2.269h1.351l0.086 1.385h0.035a3.082 3.082 0 0 1 2.77-1.575c1.16 0 2.96 0.692 2.96 3.567v5h-1.521v-4.831c0-1.351-0.5-2.476-1.939-2.476a2.164 2.164 0 0 0-2.043 1.559 2.171 2.171 0 0 0-0.1 0.71v5.039h-1.523z" data-name="Path 5648"/>
				<path transform="translate(-209.63 181.88)" d="m314.93-171.15a3.989 3.989 0 0 0 2.008 0.606c1.109 0 1.627-0.554 1.627-1.247 0-0.727-0.432-1.125-1.558-1.541-1.506-0.537-2.216-1.368-2.216-2.372 0-1.351 1.091-2.459 2.891-2.459a4.184 4.184 0 0 1 2.061 0.519l-0.38 1.109a3.258 3.258 0 0 0-1.714-0.485c-0.9 0-1.4 0.52-1.4 1.143 0 0.693 0.5 1 1.593 1.42 1.454 0.555 2.2 1.281 2.2 2.528 0 1.472-1.143 2.511-3.134 2.511a4.776 4.776 0 0 1-2.355-0.572z" data-name="Path 5649"/>
			</g>
		</g>
	</g>
</svg>
