<svg xmlns="http://www.w3.org/2000/svg" version="1.1" viewBox="0 0 24 24">
	<path fill=""
		xmlns="http://www.w3.org/2000/svg" d="m15 21v1.25c0 .96-.79 1.75-1.75 1.75h-2.5c-.84 0-1.75-.64-1.75-2.04v-.96z"></path>
	<path fill=""
		xmlns="http://www.w3.org/2000/svg" d="m16.41 6.56c-1.64-1.33-3.8-1.85-5.91-1.4-2.65.55-4.8 2.71-5.35 5.36-.56 2.72.46 5.42 2.64 7.07.59.44 1 1.12 1.14 1.91v.01c.02-.01.05-.01.07-.01h6c.02 0 .03 0 .05.01v-.01c.14-.76.59-1.46 1.28-2 1.69-1.34 2.67-3.34 2.67-5.5 0-2.12-.94-4.1-2.59-5.44zm-.66 5.94c-.41 0-.75-.34-.75-.75 0-1.52-1.23-2.75-2.75-2.75-.41 0-.75-.34-.75-.75s.34-.75.75-.75c2.34 0 4.25 1.91 4.25 4.25 0 .41-.34.75-.75.75z"></path>
</svg>