<?xml version="1.0" standalone="no"?>
<!DOCTYPE svg PUBLIC "-//W3C//DTD SVG 20010904//EN"
 "http://www.w3.org/TR/2001/REC-SVG-20010904/DTD/svg10.dtd">
<svg version="1.0" xmlns="http://www.w3.org/2000/svg"
 width="700.000000pt" height="700.000000pt" viewBox="0 0 700.000000 700.000000"
 preserveAspectRatio="xMidYMid meet">
<metadata>
Created by potrace 1.14, written by Peter Selinger 2001-2017
</metadata>
<g transform="translate(0.000000,700.000000) scale(0.100000,-0.100000)"
fill="#000000" stroke="none">
<path d="M613 6984 c-248 -54 -464 -237 -560 -474 -56 -139 -53 38 -53 -3007
0 -3059 -3 -2872 54 -3015 96 -238 314 -420 566 -473 106 -22 5638 -23 5754
-1 157 30 274 94 396 216 122 122 186 239 216 396 22 117 21 5648 -1 5755 -33
156 -96 269 -215 389 -88 88 -157 135 -258 176 -143 57 46 54 -3020 53 -2344
-1 -2827 -3 -2879 -15z m1993 -269 c53 -26 96 -81 135 -169 22 -51 1809 -5342
1809 -5357 0 -5 -240 -8 -547 -7 l-548 3 -234 737 c-201 631 -238 737 -255
742 -12 3 -356 6 -766 6 l-745 0 -379 -1128 c-208 -620 -388 -1145 -400 -1167
-12 -22 -42 -54 -68 -71 -147 -99 -342 4 -341 180 1 41 202 649 1022 3079 561
1666 1028 3044 1037 3063 48 101 175 142 280 89z m2049 1 c466 -64 725 -213
946 -544 120 -179 189 -352 229 -573 69 -385 5 -802 -166 -1076 -100 -160
-197 -263 -367 -391 l-89 -66 121 -32 c231 -60 363 -118 528 -231 445 -303
701 -627 808 -1023 78 -289 91 -661 35 -985 -62 -352 -208 -669 -432 -933
-242 -284 -638 -482 -1128 -562 -235 -38 -385 -41 -1690 -38 l-1255 3 -40 22
c-52 27 -90 68 -110 117 -14 34 -17 139 -22 902 l-6 864 221 0 222 0 0 -233
c0 -129 3 -457 7 -731 l6 -497 1241 4 1241 3 125 23 c419 77 704 224 884 454
156 201 252 419 302 692 26 141 26 520 1 649 -66 326 -201 542 -482 769 -152
123 -291 210 -391 246 -201 73 -554 146 -940 195 -104 13 -206 31 -225 39 -19
7 -51 32 -71 55 -76 84 -77 202 -4 288 43 50 83 67 220 94 141 27 327 88 444
144 383 187 563 435 591 816 21 293 -43 553 -188 762 -205 297 -431 357 -1333
358 l-378 0 0 221 0 221 513 -5 c399 -4 538 -8 632 -21z"/>
</g>
</svg>
